<svg xmlns="http://www.w3.org/2000/svg" width="400" height="860" viewBox="0 0 400 860">
<defs>
 <radialGradient id="a" cx="15%" cy="8%" r="55%"><stop offset="0%" stop-color="#8B5CF6" stop-opacity="0.28"/><stop offset="100%" stop-color="#8B5CF6" stop-opacity="0"/></radialGradient>
 <radialGradient id="b" cx="90%" cy="18%" r="50%"><stop offset="0%" stop-color="#22D3EE" stop-opacity="0.20"/><stop offset="100%" stop-color="#22D3EE" stop-opacity="0"/></radialGradient>
 <radialGradient id="c" cx="50%" cy="100%" r="60%"><stop offset="0%" stop-color="#8B5CF6" stop-opacity="0.14"/><stop offset="100%" stop-color="#8B5CF6" stop-opacity="0"/></radialGradient>
 <linearGradient id="brand" x1="0" y1="0" x2="1" y2="1"><stop offset="0%" stop-color="#22D3EE"/><stop offset="100%" stop-color="#8B5CF6"/></linearGradient>
 <linearGradient id="brandv" x1="0" y1="0" x2="1" y2="1"><stop offset="0%" stop-color="#8B5CF6"/><stop offset="100%" stop-color="#22D3EE"/></linearGradient>
</defs>
<rect width="400" height="860" fill="#0A0F1E"/>
<rect width="400" height="860" fill="url(#a)"/><rect width="400" height="860" fill="url(#b)"/><rect width="400" height="860" fill="url(#c)"/>
<text x="20" y="26" font-family="DejaVu Sans" font-size="12" fill="#9AA7BD">9:41</text>
<rect x="348" y="16" width="18" height="9" rx="2" fill="none" stroke="#9AA7BD" stroke-width="1.2"/><rect x="350" y="18" width="11" height="5" rx="1" fill="#9AA7BD"/>
<text x="20" y="58" font-family="DejaVu Sans" font-size="21" font-weight="bold" fill="#E7ECF5">On-device models</text>
<text x="20" y="78" font-family="DejaVu Sans" font-size="11.5" fill="#9AA7BD">Download once — run forever, offline.</text><rect x="20" y="96" width="360" height="74" rx="16" fill="#121A30" fill-opacity="0.92" stroke="#FFFFFF14" stroke-width="1"/><rect x="36" y="110" width="328" height="30" rx="12" fill="url(#brand)"/><text x="200" y="130" font-family="DejaVu Sans" font-size="10.5" fill="#FFFFFF" font-weight="bold" text-anchor="middle" opacity="1">＋  Import model file (.task / .litertlm)</text><text x="36" y="156" font-family="DejaVu Sans" font-size="9.5" fill="#66748F" text-anchor="start" opacity="1">Tap a model to rename it and tune its engine</text><text x="20" y="194" font-family="DejaVu Sans" font-size="9.5" fill="#66748F" font-weight="bold" text-anchor="start" opacity="1">INSTALLED</text><rect x="20" y="204" width="360" height="46" rx="12" fill="#0F1628" fill-opacity="0.92" stroke="#FFFFFF14" stroke-width="1"/><circle cx="42" cy="227" r="8" fill="none" stroke="#34D399" stroke-width="1.8"/><path d="M38 227 l3 3 5 -6" fill="none" stroke="#34D399" stroke-width="1.8"/><text x="58" y="224" font-family="DejaVu Sans" font-size="11.5" fill="#E7ECF5" font-weight="bold" text-anchor="start" opacity="1">SmolLM2 135M ✎</text><text x="58" y="240" font-family="DejaVu Sans Mono" font-size="9" fill="#22D3EE" text-anchor="start" opacity="1">0.14 GB · 2048 tok · GPU</text><rect x="20" y="258" width="360" height="46" rx="12" fill="#0F1628" fill-opacity="0.92" stroke="#FFFFFF14" stroke-width="1"/><circle cx="42" cy="281" r="8" fill="none" stroke="#34D399" stroke-width="1.8"/><path d="M38 281 l3 3 5 -6" fill="none" stroke="#34D399" stroke-width="1.8"/><text x="58" y="278" font-family="DejaVu Sans" font-size="11.5" fill="#E7ECF5" font-weight="bold" text-anchor="start" opacity="1">OLMo 2 1B</text><text x="58" y="294" font-family="DejaVu Sans Mono" font-size="9" fill="#22D3EE" text-anchor="start" opacity="1">0.93 GB · 2048 tok · auto</text><rect x="20" y="312" width="360" height="46" rx="12" fill="#0F1628" fill-opacity="0.92" stroke="#FFFFFF14" stroke-width="1"/><text x="58" y="332" font-family="DejaVu Sans" font-size="11.5" fill="#E7ECF5" font-weight="bold" text-anchor="start" opacity="1">Qwen2.5 1.5B</text><rect x="58" y="340" width="180" height="7" rx="3.5" fill="#FFFFFF14"/><rect x="58" y="340" width="85" height="7" rx="3.5" fill="url(#brandv)"/><text x="248" y="347" font-family="DejaVu Sans Mono" font-size="9" fill="#22D3EE" text-anchor="start" opacity="1">1.57 GB · 47%</text><text x="352" y="338" font-family="DejaVu Sans" font-size="9.5" fill="#F87171" font-weight="bold" text-anchor="end" opacity="1">Pause</text><text x="20" y="380" font-family="DejaVu Sans" font-size="9.5" fill="#66748F" font-weight="bold" text-anchor="start" opacity="1">BUILT-IN STORE — ONE-TAP DOWNLOAD</text><rect x="20" y="390" width="360" height="40" rx="12" fill="#0F1628" fill-opacity="0.92" stroke="#FFFFFF14" stroke-width="1"/><text x="36" y="415" font-family="DejaVu Sans" font-size="10.5" fill="#E7ECF5" text-anchor="start" opacity="1">SmolLM2 135M — light test model</text><text x="370" y="415" font-family="DejaVu Sans Mono" font-size="9.5" fill="#66748F" text-anchor="end" opacity="1">0.14 GB</text><text x="314" y="415" font-family="DejaVu Sans" font-size="9.5" fill="#22D3EE" font-weight="bold" text-anchor="end" opacity="1">Download</text><rect x="20" y="436" width="360" height="40" rx="12" fill="#0F1628" fill-opacity="0.92" stroke="#FFFFFF14" stroke-width="1"/><text x="36" y="461" font-family="DejaVu Sans" font-size="10.5" fill="#E7ECF5" text-anchor="start" opacity="1">OLMo 2 1B — balanced</text><text x="370" y="461" font-family="DejaVu Sans Mono" font-size="9.5" fill="#66748F" text-anchor="end" opacity="1">0.93 GB</text><text x="314" y="461" font-family="DejaVu Sans" font-size="9.5" fill="#22D3EE" font-weight="bold" text-anchor="end" opacity="1">Download</text><rect x="20" y="482" width="360" height="40" rx="12" fill="#0F1628" fill-opacity="0.92" stroke="#FFFFFF14" stroke-width="1"/><text x="36" y="507" font-family="DejaVu Sans" font-size="10.5" fill="#E7ECF5" text-anchor="start" opacity="1">Qwen2.5 1.5B — strongest</text><text x="370" y="507" font-family="DejaVu Sans Mono" font-size="9.5" fill="#66748F" text-anchor="end" opacity="1">1.57 GB</text><text x="314" y="507" font-family="DejaVu Sans" font-size="9.5" fill="#9AA7BD" font-weight="bold" text-anchor="end" opacity="1">47%</text><text x="20" y="542" font-family="DejaVu Sans" font-size="9" fill="#66748F" text-anchor="start" opacity="1">Gemma (Google) needs a one-time license OK in</text><text x="20" y="556" font-family="DejaVu Sans" font-size="9" fill="#66748F" text-anchor="start" opacity="1">your browser — links open from Settings.</text><rect x="14" y="786" width="372" height="58" rx="24" fill="#121A30" fill-opacity="0.97" stroke="#FFFFFF14" stroke-width="1"/><path d="M39.0 807 l6 -6 l6 6 v7 h-12 z" fill="none" stroke="#9AA7BD" stroke-width="1.6"/><text x="45.0" y="833" font-family="DejaVu Sans" font-size="6.8" fill="#66748F" text-anchor="middle" opacity="1">Home</text><rect x="101.0" y="801" width="12" height="12" rx="2" fill="none" stroke="#9AA7BD" stroke-width="1.6"/><line x1="101.0" y1="805" x2="113.0" y2="805" stroke="#9AA7BD" stroke-width="1.4"/><text x="107.0" y="833" font-family="DejaVu Sans" font-size="6.8" fill="#66748F" text-anchor="middle" opacity="1">Temps</text><path d="M163.0 813 v-9 l7 -4 0 13 z" fill="none" stroke="#9AA7BD" stroke-width="1.6" stroke-linejoin="round"/><text x="169.0" y="833" font-family="DejaVu Sans" font-size="6.8" fill="#66748F" text-anchor="middle" opacity="1">Build</text><path d="M226.0 802 l10 5 -10 5 z" fill="#9AA7BD"/><text x="231.0" y="833" font-family="DejaVu Sans" font-size="6.8" fill="#66748F" text-anchor="middle" opacity="1">Lab</text><rect x="287.0" y="801" width="5" height="12" rx="1.5" fill="#9AA7BD"/><rect x="294.0" y="804" width="5" height="9" rx="1.5" fill="#9AA7BD"/><text x="293.0" y="833" font-family="DejaVu Sans" font-size="6.8" fill="#66748F" text-anchor="middle" opacity="1">Library</text><rect x="339.0" y="794" width="32" height="26" rx="10" fill="url(#brand)"/><circle cx="355.0" cy="807" r="4.5" fill="none" stroke="#FFFFFF" stroke-width="1.6"/><circle cx="355.0" cy="807" r="1.4" fill="#FFFFFF"/><text x="355.0" y="833" font-family="DejaVu Sans" font-size="6.8" fill="#E7ECF5" font-weight="bold" text-anchor="middle" opacity="1">Settings</text></svg>